HIERARCHY
ROOT joint_Root
{
	OFFSET 0.0 0.0 0.0
	CHANNELS 6 Xposition Yposition Zposition Zrotation Xrotation Yrotation 
	JOINT Hips
	{
		OFFSET 4.5925 91.4895 -427.239
		CHANNELS 6 Xposition Yposition Zposition Zrotation Xrotation Yrotation 
		JOINT Spine
		{
			OFFSET 15.7357 0.0 0.0
			CHANNELS 6 Xposition Yposition Zposition Zrotation Xrotation Yrotation 
			JOINT Chest
			{
				OFFSET 8.98455 -0.406207 0.0
				CHANNELS 6 Xposition Yposition Zposition Zrotation Xrotation Yrotation 
				JOINT Neck
				{
					OFFSET 16.3773 0.0 0.0
					CHANNELS 6 Xposition Yposition Zposition Zrotation Xrotation Yrotation 
					JOINT Head
					{
						OFFSET 6.45672 0.0 0.0
						CHANNELS 6 Xposition Yposition Zposition Zrotation Xrotation Yrotation 
						End Site
						{
							OFFSET 0.0 0.0 0.0
						}
					}
				}
				JOINT Shoulder_L
				{
					OFFSET 12.9942 -0.242716 4.98039
					CHANNELS 6 Xposition Yposition Zposition Zrotation Xrotation Yrotation 
					JOINT UpperArm_L
					{
						OFFSET 5.34809 0.0 0.0
						CHANNELS 6 Xposition Yposition Zposition Zrotation Xrotation Yrotation 
						JOINT LowerArm_L
						{
							OFFSET 24.3286 1.87007e-05 0.0
							CHANNELS 6 Xposition Yposition Zposition Zrotation Xrotation Yrotation 
							JOINT Hand_L
							{
								OFFSET 22.2916 0.0 0.0
								CHANNELS 6 Xposition Yposition Zposition Zrotation Xrotation Yrotation 
								End Site
								{
									OFFSET 0.0 0.0 0.0
								}
							}
						}
					}
				}
				JOINT Shoulder_R
				{
					OFFSET 12.9945 -0.242716 -4.98039
					CHANNELS 6 Xposition Yposition Zposition Zrotation Xrotation Yrotation 
					JOINT UpperArm_R
					{
						OFFSET -5.34813 0.0 0.0
						CHANNELS 6 Xposition Yposition Zposition Zrotation Xrotation Yrotation 
						JOINT LowerArm_R
						{
							OFFSET -24.3289 0.000322201 0.0
							CHANNELS 6 Xposition Yposition Zposition Zrotation Xrotation Yrotation 
							JOINT Hand_R
							{
								OFFSET -22.2915 -0.000108084 0.0
								CHANNELS 6 Xposition Yposition Zposition Zrotation Xrotation Yrotation 
								End Site
								{
									OFFSET 0.0 0.0 0.0
								}
							}
						}
					}
				}
			}
		}
		JOINT UpperLeg_L
		{
			OFFSET -2.19248 -6.46944 0.0
			CHANNELS 6 Xposition Yposition Zposition Zrotation Xrotation Yrotation 
			JOINT LowerLeg_L
			{
				OFFSET 39.0811 0.0 -1.23785e-05
				CHANNELS 6 Xposition Yposition Zposition Zrotation Xrotation Yrotation 
				JOINT Foot_L
				{
					OFFSET 40.9854 0.0 -1.26872e-05
					CHANNELS 6 Xposition Yposition Zposition Zrotation Xrotation Yrotation 
					JOINT Toes_L
					{
						OFFSET 11.7543 0.0 0.0
						CHANNELS 6 Xposition Yposition Zposition Zrotation Xrotation Yrotation 
						End Site
						{
							OFFSET 0.0 0.0 0.0
						}
					}
				}
			}
		}
		JOINT UpperLeg_R
		{
			OFFSET -2.19251 6.46944 0.0
			CHANNELS 6 Xposition Yposition Zposition Zrotation Xrotation Yrotation 
			JOINT LowerLeg_R
			{
				OFFSET -39.0811 -0.00228153 -0.0401928
				CHANNELS 6 Xposition Yposition Zposition Zrotation Xrotation Yrotation 
				JOINT Foot_R
				{
					OFFSET -40.9854 0.0 0.0
					CHANNELS 6 Xposition Yposition Zposition Zrotation Xrotation Yrotation 
					JOINT Toes_R
					{
						OFFSET -11.7543 0.0 0.0
						CHANNELS 6 Xposition Yposition Zposition Zrotation Xrotation Yrotation 
						End Site
						{
							OFFSET 0.0 0.0 0.0
						}
					}
				}
			}
		}
	}
}
MOTION
Frames:	6
Frame Time:	0.0333333
0.000000 0.000000 0.000000 0.000000 0.000000 -0.000000 -73.959400 89.939300 181.020000 67.088400 83.658100 23.369600 15.735700 0.000005 -0.000001 68.181400 85.097000 -66.512200 8.984550 -0.406207 -0.000000 1.397480 -3.735570 3.382100 16.377300 -0.000001 -0.000001 -2.448290 -0.578719 -0.203708 6.456720 -0.000001 -0.000000 -9.696970 3.588890 -2.912030 12.994200 -0.242716 4.980390 -91.020000 3.865800 -75.207100 5.348090 -0.000007 -0.000001 -58.468200 43.748400 -31.178700 24.328600 0.000019 0.000005 10.370800 19.197100 -29.098500 22.291600 -0.000001 0.000005 10.314200 5.239660 1.703780 12.994500 -0.242716 -4.980390 87.971000 9.818390 -78.263300 -5.348130 -0.000001 -0.000004 -62.364600 21.992000 2.230720 -24.328900 0.000322 -0.000009 0.658678 2.780010 -13.357700 -22.291500 -0.000108 -0.000004 14.843900 5.345800 -1.251130 -2.192480 -6.469440 -0.000000 178.395000 -5.481080 -1.119760 39.081100 -0.000007 -0.000012 0.035830 -0.061801 30.103400 40.985400 -0.000006 -0.000013 8.919200 -0.837730 -73.775100 11.754300 -0.000000 0.000003 -2.078730 -2.561510 -20.153300 -2.192510 6.469440 -0.000001 179.816000 7.905750 153.580000 -39.081100 -0.002282 -0.040193 0.013633 -0.005423 62.569400 -40.985400 0.000008 0.000006 7.647220 -4.961200 -57.979900 -11.754300 -0.000006 -0.000006 -0.018243 -0.157354 -22.998900
0.000000 0.000000 0.000000 0.000000 0.000000 -0.000000 -71.544600 90.193500 181.678000 55.984700 85.486200 33.472800 15.735700 0.000005 -0.000001 64.691800 85.176600 -62.986400 8.984550 -0.406207 -0.000000 1.023620 -4.222560 3.446870 16.377300 -0.000001 -0.000001 -2.753700 -0.764690 0.160246 6.456720 -0.000001 -0.000000 -9.844510 3.660690 -2.521930 12.994200 -0.242716 4.980390 -90.873100 3.387910 -75.539800 5.348090 -0.000007 -0.000001 -55.878800 45.423400 -35.092100 24.328600 0.000019 0.000005 12.223300 17.921100 -35.146100 22.291600 -0.000001 0.000005 9.882880 5.269070 0.922389 12.994500 -0.242716 -4.980390 87.982500 9.363870 -77.783400 -5.348130 -0.000001 -0.000004 -62.049700 21.441900 5.524640 -24.328900 0.000322 -0.000009 0.659646 2.565520 -14.446200 -22.291500 -0.000108 -0.000004 15.556500 5.363110 -1.773740 -2.192480 -6.469440 -0.000000 179.274000 -4.843270 0.042960 39.081100 -0.000007 -0.000012 0.028542 -0.051987 28.766800 40.985400 -0.000006 -0.000013 8.669990 1.050850 -72.725600 11.754300 -0.000000 0.000003 -1.890770 -2.196590 -20.258200 -2.192510 6.469440 -0.000001 -179.774000 7.905800 151.816000 -39.081100 -0.002282 -0.040193 0.028681 -0.018804 53.538000 -40.985400 0.000008 0.000006 6.722210 -3.059050 -59.726000 -11.754300 -0.000006 -0.000006 -0.018201 -0.157112 -22.988900
0.000000 0.000000 0.000000 0.000000 0.000000 -0.000000 -68.969700 90.096800 182.413000 38.058900 86.742400 50.595000 15.735700 0.000005 -0.000001 62.198400 85.201300 -60.446800 8.984550 -0.406207 -0.000000 0.799735 -4.581200 3.534100 16.377300 -0.000001 -0.000001 -3.036490 -0.872407 0.499275 6.456720 -0.000001 -0.000000 -10.181100 3.815940 -1.758280 12.994200 -0.242716 4.980390 -90.807600 3.145620 -75.593500 5.348090 -0.000007 -0.000001 -53.183100 46.607600 -38.590800 24.328600 0.000019 0.000005 13.911800 16.662400 -40.822100 22.291600 -0.000001 0.000005 10.440400 5.301240 0.039832 12.994500 -0.242716 -4.980390 88.082400 8.689230 -77.503900 -5.348130 -0.000001 -0.000004 -62.193900 20.552400 7.927700 -24.328900 0.000322 -0.000009 0.815296 3.246780 -14.122400 -22.291500 -0.000108 -0.000004 16.050700 5.365400 -1.844900 -2.192480 -6.469440 -0.000000 -179.793000 -4.242390 1.091230 39.081100 -0.000007 -0.000012 0.024045 -0.044619 28.319400 40.985400 -0.000006 -0.000013 8.379340 2.588820 -72.433700 11.754300 -0.000000 0.000003 -0.945333 -1.096340 -21.226600 -2.192510 6.469440 -0.000001 -179.144000 8.868280 150.726000 -39.081100 -0.002282 -0.040193 0.032432 -0.030296 43.909600 -40.985400 0.000008 0.000006 5.733520 0.716975 -59.955300 -11.754300 -0.000006 -0.000006 -0.019160 -0.162593 -23.214500
0.000000 0.000000 0.000000 0.000000 0.000000 -0.000000 -66.067200 89.652100 183.225000 10.295500 87.400400 77.890300 15.735700 0.000005 -0.000001 60.624800 85.152800 -58.832500 8.984550 -0.406207 -0.000000 0.764560 -4.863100 3.615980 16.377300 -0.000001 -0.000001 -3.092570 -0.868680 0.818219 6.456720 -0.000001 -0.000000 -10.580500 3.842660 -0.967717 12.994200 -0.242716 4.980390 -90.779300 3.016340 -75.506300 5.348090 -0.000007 -0.000001 -50.764800 47.419900 -41.570800 24.328600 0.000019 0.000005 14.724400 15.136900 -45.184300 22.291600 -0.000001 0.000005 11.454500 5.335070 -0.931531 12.994500 -0.242716 -4.980390 88.179800 8.174280 -77.401000 -5.348130 -0.000001 -0.000004 -62.300200 19.049700 9.445200 -24.328900 0.000322 -0.000009 0.880395 3.956850 -12.572400 -22.291500 -0.000108 -0.000004 15.926400 5.348330 -1.326490 -2.192480 -6.469440 -0.000000 -178.740000 -3.705080 2.422540 39.081100 -0.000007 -0.000012 0.020208 -0.037150 28.543500 40.985400 -0.000006 -0.000013 7.831870 3.981410 -72.867300 11.754300 -0.000000 0.000003 -0.015341 -0.139969 -22.288100 -2.192510 6.469440 -0.000001 -178.200000 10.064300 149.922000 -39.081100 -0.002282 -0.040193 0.017455 -0.019367 36.185200 -40.985400 0.000008 0.000006 2.219730 3.697390 -59.721400 -11.754300 -0.000006 -0.000006 -0.019695 -0.165595 -23.338100
0.000000 0.000000 0.000000 0.000000 0.000000 -0.000000 -62.680600 88.915100 184.204000 -13.882700 87.164700 102.012000 15.735700 0.000005 -0.000001 60.326200 85.070300 -58.398800 8.984550 -0.406207 -0.000000 0.892002 -4.994760 3.892630 16.377300 -0.000001 -0.000001 -2.800420 -0.734589 0.996467 6.456720 -0.000001 -0.000000 -10.876500 3.909330 -0.256220 12.994200 -0.242716 4.980390 -90.825700 3.134200 -75.232900 5.348090 -0.000007 -0.000001 -48.791000 48.094600 -43.774500 24.328600 0.000019 0.000005 14.393800 13.462400 -47.788500 22.291600 -0.000001 0.000005 12.440800 5.357970 -1.617870 12.994500 -0.242716 -4.980390 88.192500 8.202320 -77.527100 -5.348130 -0.000001 -0.000004 -61.845200 17.138400 10.055200 -24.328900 0.000322 -0.000009 0.866901 4.990350 -9.881790 -22.291500 -0.000108 -0.000004 15.686600 5.324780 -0.633315 -2.192480 -6.469440 -0.000000 -177.209000 -3.642220 4.160690 39.081100 -0.000007 -0.000012 0.015865 -0.028048 29.492900 40.985400 -0.000006 -0.000013 7.292700 5.637110 -73.631500 11.754300 -0.000000 0.000003 -0.026211 -0.199556 -24.743800 -2.192510 6.469440 -0.000001 -175.679000 13.656300 148.714000 -39.081100 -0.002282 -0.040193 0.009572 -0.009655 33.028100 -40.985400 0.000008 0.000006 1.348470 5.720400 -59.037500 -11.754300 -0.000006 -0.000006 -0.020211 -0.168454 -23.455900
0.000000 0.000000 0.000000 0.000000 0.000000 -0.000000 -58.699300 88.001300 185.268000 -29.676500 86.626600 117.940000 15.735700 0.000005 -0.000001 59.778000 85.119300 -57.719600 8.984550 -0.406207 -0.000000 0.766949 -5.037410 4.149400 16.377300 -0.000001 -0.000001 -2.034080 -0.674615 1.108250 6.456720 -0.000001 -0.000000 -10.808100 3.851230 0.362571 12.994200 -0.242716 4.980390 -90.960800 3.536100 -74.788500 5.348090 -0.000007 -0.000001 -47.085800 49.069000 -44.961900 24.328600 0.000019 0.000005 13.525600 12.112200 -48.902800 22.291600 -0.000001 0.000005 13.004000 5.366850 -1.889320 12.994500 -0.242716 -4.980390 87.965300 9.100990 -77.341400 -5.348130 -0.000001 -0.000004 -60.637300 16.089200 10.038800 -24.328900 0.000322 -0.000009 0.695908 6.076660 -6.559910 -22.291500 -0.000108 -0.000004 15.961000 5.291040 0.320359 -2.192480 -6.469440 -0.000000 -175.538000 -3.689350 5.743220 39.081100 -0.000007 -0.000012 0.011737 -0.019038 31.652600 40.985400 -0.000006 -0.000013 6.632880 7.135440 -73.681700 11.754300 -0.000000 0.000003 -0.051478 -0.303005 -29.062000 -2.192510 6.469440 -0.000001 -173.862000 15.081800 147.022000 -39.081100 -0.002282 -0.040193 0.007167 -0.005149 37.009300 -40.985400 0.000008 0.000006 6.965710 5.933190 -57.460400 -11.754300 -0.000006 -0.000006 -0.010437 -0.106874 -20.928000
